<?xml version="1.0" encoding="UTF-8" standalone="no"?>
<!DOCTYPE svg PUBLIC "-//W3C//DTD SVG 1.1//EN"
 "http://www.w3.org/Graphics/SVG/1.1/DTD/svg11.dtd">
<!-- Generated by graphviz version 2.40.1 (20161225.0304)
 -->
<!-- Title: G Pages: 1 -->
<svg width="469pt" height="108pt"
 viewBox="0.00 0.00 469.00 108.00" xmlns="http://www.w3.org/2000/svg" xmlns:xlink="http://www.w3.org/1999/xlink">
<g id="graph0" class="graph" transform="scale(1 1) rotate(0) translate(4 104)">
<title>G</title>
<polygon fill="#ffffff" stroke="transparent" points="-4,4 -4,-104 465,-104 465,4 -4,4"/>
<!-- A0 -->
<g id="node1" class="node">
<title>A0</title>
<polygon fill="none" stroke="#000000" points="370.5,-62 370.5,-94 461.5,-94 461.5,-62 370.5,-62"/>
<text text-anchor="start" x="407.6665" y="-75" font-family="Helvetica,sans-Serif" font-size="10.00" fill="#000000">Üye</text>
<polygon fill="none" stroke="#000000" points="370.5,-6 370.5,-62 461.5,-62 461.5,-6 370.5,-6"/>
<text text-anchor="start" x="411.831" y="-43" font-family="Helvetica,sans-Serif" font-size="10.00" fill="#000000">Id</text>
<text text-anchor="start" x="398.223" y="-31" font-family="Helvetica,sans-Serif" font-size="10.00" fill="#000000">Cinsiyet</text>
<text text-anchor="start" x="380.452" y="-19" font-family="Helvetica,sans-Serif" font-size="10.00" fill="#000000">UyelikBitisTarihi</text>
</g>
<!-- A1 -->
<g id="node2" class="node">
<title>A1</title>
<polygon fill="none" stroke="#000000" points="251.5,-56 251.5,-88 320.5,-88 320.5,-56 251.5,-56"/>
<text text-anchor="start" x="261.273" y="-69" font-family="Helvetica,sans-Serif" font-size="10.00" fill="#000000">GymBuddy</text>
<polygon fill="none" stroke="#000000" points="251.5,-12 251.5,-56 320.5,-56 320.5,-12 251.5,-12"/>
<text text-anchor="start" x="262.6695" y="-37" font-family="Helvetica,sans-Serif" font-size="10.00" fill="#000000">giris_yap()</text>
<text text-anchor="start" x="262.1135" y="-25" font-family="Helvetica,sans-Serif" font-size="10.00" fill="#000000">cikis_yap()</text>
</g>
<!-- A0&#45;&gt;A1 -->
<g id="edge1" class="edge">
<title>A0&#45;&gt;A1</title>
<path fill="none" stroke="#000000" d="M369.6669,-50C356.9884,-50 343.2415,-50 330.6048,-50"/>
<polygon fill="#000000" stroke="#000000" points="320.2989,-50 330.2989,-45.5001 325.2989,-50 330.2989,-50.0001 330.2989,-50.0001 330.2989,-50.0001 325.2989,-50 330.2989,-54.5001 320.2989,-50 320.2989,-50"/>
<text text-anchor="middle" x="338.4251" y="-55.4524" font-family="Helvetica,sans-Serif" font-size="10.00" fill="#000000">1</text>
<text text-anchor="middle" x="351.5407" y="-38.5476" font-family="Helvetica,sans-Serif" font-size="10.00" fill="#000000">*</text>
</g>
<!-- A2 -->
<g id="node3" class="node">
<title>A2</title>
<polygon fill="none" stroke="#000000" points="126.5,-68 126.5,-100 201.5,-100 201.5,-68 126.5,-68"/>
<text text-anchor="start" x="136.4905" y="-81" font-family="Helvetica,sans-Serif" font-size="10.00" fill="#000000">Spor Salonu</text>
<polygon fill="none" stroke="#000000" points="126.5,0 126.5,-68 201.5,-68 201.5,0 126.5,0"/>
<text text-anchor="start" x="141.779" y="-49" font-family="Helvetica,sans-Serif" font-size="10.00" fill="#000000">KayitliUye</text>
<text text-anchor="start" x="145.388" y="-37" font-family="Helvetica,sans-Serif" font-size="10.00" fill="#000000">AktifUye</text>
<text text-anchor="start" x="147.0575" y="-25" font-family="Helvetica,sans-Serif" font-size="10.00" fill="#000000">Sicaklik</text>
<text text-anchor="start" x="153.4465" y="-13" font-family="Helvetica,sans-Serif" font-size="10.00" fill="#000000">Nem</text>
</g>
<!-- A1&#45;&gt;A2 -->
<g id="edge2" class="edge">
<title>A1&#45;&gt;A2</title>
<path fill="none" stroke="#000000" d="M240.7328,-50C227.753,-50 213.7158,-50 201.214,-50"/>
<polygon fill="#000000" stroke="#000000" points="250.866,-50 240.8661,-54.5001 245.866,-50 240.866,-50.0001 240.866,-50.0001 240.866,-50.0001 245.866,-50 240.866,-45.5001 250.866,-50 250.866,-50"/>
<text text-anchor="middle" x="219.3402" y="-55.4524" font-family="Helvetica,sans-Serif" font-size="10.00" fill="#000000">*</text>
<text text-anchor="middle" x="232.7399" y="-38.5476" font-family="Helvetica,sans-Serif" font-size="10.00" fill="#000000">1</text>
</g>
<!-- A3 -->
<g id="node4" class="node">
<title>A3</title>
<polygon fill="none" stroke="#000000" points="0,-62 0,-94 76,-94 76,-62 0,-62"/>
<text text-anchor="start" x="29.6665" y="-75" font-family="Helvetica,sans-Serif" font-size="10.00" fill="#000000">IOT</text>
<polygon fill="none" stroke="#000000" points="0,-6 0,-62 76,-62 76,-6 0,-6"/>
<text text-anchor="start" x="16.059" y="-43" font-family="Helvetica,sans-Serif" font-size="10.00" fill="#000000">GetNem()</text>
<text text-anchor="start" x="9.67" y="-31" font-family="Helvetica,sans-Serif" font-size="10.00" fill="#000000">GetSicaklik()</text>
<text text-anchor="start" x="11.3295" y="-19" font-family="Helvetica,sans-Serif" font-size="10.00" fill="#000000">GetAktifUye</text>
</g>
<!-- A2&#45;&gt;A3 -->
<g id="edge3" class="edge">
<title>A2&#45;&gt;A3</title>
<path fill="none" stroke="#000000" d="M115.5958,-50C102.5121,-50 88.515,-50 76.0613,-50"/>
<polygon fill="#000000" stroke="#000000" points="125.8459,-50 115.8459,-54.5001 120.8459,-50 115.8459,-50.0001 115.8459,-50.0001 115.8459,-50.0001 120.8459,-50 115.8458,-45.5001 125.8459,-50 125.8459,-50"/>
<text text-anchor="middle" x="94.1875" y="-55.4524" font-family="Helvetica,sans-Serif" font-size="10.00" fill="#000000">1</text>
<text text-anchor="middle" x="107.7197" y="-38.5476" font-family="Helvetica,sans-Serif" font-size="10.00" fill="#000000">1</text>
</g>
</g>
</svg>
