<?xml version="1.0" encoding="UTF-8" standalone="no"?>
<!DOCTYPE svg PUBLIC "-//W3C//DTD SVG 1.1//EN"
 "http://www.w3.org/Graphics/SVG/1.1/DTD/svg11.dtd">
<!-- Generated by graphviz version 2.40.1 (20161225.0304)
 -->
<!-- Title: G Pages: 1 -->
<svg width="1012pt" height="260pt"
 viewBox="0.00 0.00 1012.26 260.00" xmlns="http://www.w3.org/2000/svg" xmlns:xlink="http://www.w3.org/1999/xlink">
<g id="graph0" class="graph" transform="scale(1 1) rotate(0) translate(4 256)">
<title>G</title>
<polygon fill="#ffffff" stroke="transparent" points="-4,4 -4,-256 1008.26,-256 1008.26,4 -4,4"/>
<!-- A0 -->
<g id="node1" class="node">
<title>A0</title>
<path fill="none" stroke="#000000" d="M165.167,-36C165.167,-36 101.173,-36 101.173,-36 95.173,-36 89.173,-30 89.173,-24 89.173,-24 89.173,-12 89.173,-12 89.173,-6 95.173,0 101.173,0 101.173,0 165.167,0 165.167,0 171.167,0 177.167,-6 177.167,-12 177.167,-12 177.167,-24 177.167,-24 177.167,-30 171.167,-36 165.167,-36"/>
<text text-anchor="middle" x="133.17" y="-15" font-family="Helvetica,sans-Serif" font-size="10.00" fill="#000000">Üye:Giriş yap</text>
</g>
<!-- A1 -->
<g id="node2" class="node">
<title>A1</title>
<path fill="none" stroke="#000000" d="M488.0965,-36C488.0965,-36 343.2765,-36 343.2765,-36 337.2765,-36 331.2765,-30 331.2765,-24 331.2765,-24 331.2765,-12 331.2765,-12 331.2765,-6 337.2765,0 343.2765,0 343.2765,0 488.0965,0 488.0965,0 494.0965,0 500.0965,-6 500.0965,-12 500.0965,-12 500.0965,-24 500.0965,-24 500.0965,-30 494.0965,-36 488.0965,-36"/>
<text text-anchor="middle" x="415.6865" y="-15" font-family="Helvetica,sans-Serif" font-size="10.00" fill="#000000">Üye:Üye bilgilerini görüntüle</text>
</g>
<!-- A0&#45;&gt;A1 -->
<g id="edge1" class="edge">
<title>A0&#45;&gt;A1</title>
<path fill="none" stroke="#000000" d="M177.3132,-18C215.6354,-18 272.4402,-18 320.9853,-18"/>
<polygon fill="#000000" stroke="#000000" points="331.2093,-18 321.2093,-22.5001 326.2093,-18 321.2093,-18.0001 321.2093,-18.0001 321.2093,-18.0001 326.2093,-18 321.2092,-13.5001 331.2093,-18 331.2093,-18"/>
</g>
<!-- A2 -->
<g id="node3" class="node">
<title>A2</title>
<path fill="none" stroke="#000000" d="M744.6608,-36C744.6608,-36 587.2942,-36 587.2942,-36 581.2942,-36 575.2942,-30 575.2942,-24 575.2942,-24 575.2942,-12 575.2942,-12 575.2942,-6 581.2942,0 587.2942,0 587.2942,0 744.6608,0 744.6608,0 750.6608,0 756.6608,-6 756.6608,-12 756.6608,-12 756.6608,-24 756.6608,-24 756.6608,-30 750.6608,-36 744.6608,-36"/>
<text text-anchor="middle" x="665.9775" y="-15" font-family="Helvetica,sans-Serif" font-size="10.00" fill="#000000">Üye:Üyelik süresini görüntüle</text>
</g>
<!-- A1&#45;&gt;A2 -->
<g id="edge2" class="edge">
<title>A1&#45;&gt;A2</title>
<path fill="none" stroke="#000000" d="M500.4236,-18C521.1142,-18 543.4557,-18 564.8271,-18"/>
<polygon fill="#000000" stroke="#000000" points="574.8976,-18 564.8976,-22.5001 569.8976,-18 564.8976,-18.0001 564.8976,-18.0001 564.8976,-18.0001 569.8976,-18 564.8976,-13.5001 574.8976,-18 574.8976,-18"/>
</g>
<!-- A3 -->
<g id="node4" class="node">
<title>A3</title>
<path fill="none" stroke="#000000" d="M980.3991,-36C980.3991,-36 826.7829,-36 826.7829,-36 820.7829,-36 814.7829,-30 814.7829,-24 814.7829,-24 814.7829,-12 814.7829,-12 814.7829,-6 820.7829,0 826.7829,0 826.7829,0 980.3991,0 980.3991,0 986.3991,0 992.3991,-6 992.3991,-12 992.3991,-12 992.3991,-24 992.3991,-24 992.3991,-30 986.3991,-36 980.3991,-36"/>
<text text-anchor="middle" x="903.591" y="-15" font-family="Helvetica,sans-Serif" font-size="10.00" fill="#000000">Üye:Salon bilgilerini görüntüle</text>
</g>
<!-- A2&#45;&gt;A3 -->
<g id="edge3" class="edge">
<title>A2&#45;&gt;A3</title>
<path fill="none" stroke="#000000" d="M756.8261,-18C772.4096,-18 788.6735,-18 804.4606,-18"/>
<polygon fill="#000000" stroke="#000000" points="814.7541,-18 804.7542,-22.5001 809.7541,-18 804.7541,-18.0001 804.7541,-18.0001 804.7541,-18.0001 809.7541,-18 804.7541,-13.5001 814.7541,-18 814.7541,-18"/>
</g>
<!-- A4 -->
<g id="node5" class="node">
<title>A4</title>
<path fill="none" stroke="#000000" d="M245.2464,-90C245.2464,-90 21.0936,-90 21.0936,-90 15.0936,-90 9.0936,-84 9.0936,-78 9.0936,-78 9.0936,-66 9.0936,-66 9.0936,-60 15.0936,-54 21.0936,-54 21.0936,-54 245.2464,-54 245.2464,-54 251.2464,-54 257.2464,-60 257.2464,-66 257.2464,-66 257.2464,-78 257.2464,-78 257.2464,-84 251.2464,-90 245.2464,-90"/>
<text text-anchor="middle" x="133.17" y="-69" font-family="Helvetica,sans-Serif" font-size="10.00" fill="#000000">Kamera:Sıcaklık, nem, yoğunluk verilerini topla</text>
</g>
<!-- A5 -->
<g id="node6" class="node">
<title>A5</title>
<path fill="none" stroke="#000000" d="M502.5206,-90C502.5206,-90 328.8524,-90 328.8524,-90 322.8524,-90 316.8524,-84 316.8524,-78 316.8524,-78 316.8524,-66 316.8524,-66 316.8524,-60 322.8524,-54 328.8524,-54 328.8524,-54 502.5206,-54 502.5206,-54 508.5206,-54 514.5206,-60 514.5206,-66 514.5206,-66 514.5206,-78 514.5206,-78 514.5206,-84 508.5206,-90 502.5206,-90"/>
<text text-anchor="middle" x="415.6865" y="-69" font-family="Helvetica,sans-Serif" font-size="10.00" fill="#000000">Kamera:Verileri veritabanına gönder</text>
</g>
<!-- A4&#45;&gt;A5 -->
<g id="edge4" class="edge">
<title>A4&#45;&gt;A5</title>
<path fill="none" stroke="#000000" d="M257.497,-72C273.7697,-72 290.3465,-72 306.3468,-72"/>
<polygon fill="#000000" stroke="#000000" points="316.769,-72 306.769,-76.5001 311.769,-72 306.769,-72.0001 306.769,-72.0001 306.769,-72.0001 311.769,-72 306.7689,-67.5001 316.769,-72 316.769,-72"/>
</g>
<!-- A6 -->
<g id="node7" class="node">
<title>A6</title>
<path fill="none" stroke="#000000" d="M183.2871,-144C183.2871,-144 83.0529,-144 83.0529,-144 77.0529,-144 71.0529,-138 71.0529,-132 71.0529,-132 71.0529,-120 71.0529,-120 71.0529,-114 77.0529,-108 83.0529,-108 83.0529,-108 183.2871,-108 183.2871,-108 189.2871,-108 195.2871,-114 195.2871,-120 195.2871,-120 195.2871,-132 195.2871,-132 195.2871,-138 189.2871,-144 183.2871,-144"/>
<text text-anchor="middle" x="133.17" y="-123" font-family="Helvetica,sans-Serif" font-size="10.00" fill="#000000">Veritabanı:Verileri al</text>
</g>
<!-- A7 -->
<g id="node8" class="node">
<title>A7</title>
<path fill="none" stroke="#000000" d="M484.5289,-144C484.5289,-144 346.8441,-144 346.8441,-144 340.8441,-144 334.8441,-138 334.8441,-132 334.8441,-132 334.8441,-120 334.8441,-120 334.8441,-114 340.8441,-108 346.8441,-108 346.8441,-108 484.5289,-108 484.5289,-108 490.5289,-108 496.5289,-114 496.5289,-120 496.5289,-120 496.5289,-132 496.5289,-132 496.5289,-138 490.5289,-144 484.5289,-144"/>
<text text-anchor="middle" x="415.6865" y="-123" font-family="Helvetica,sans-Serif" font-size="10.00" fill="#000000">Veritabanı:Verileri güncelle</text>
</g>
<!-- A6&#45;&gt;A7 -->
<g id="edge5" class="edge">
<title>A6&#45;&gt;A7</title>
<path fill="none" stroke="#000000" d="M195.5192,-126C233.5043,-126 282.6979,-126 324.9473,-126"/>
<polygon fill="#000000" stroke="#000000" points="334.9653,-126 324.9654,-130.5001 329.9653,-126 324.9653,-126.0001 324.9653,-126.0001 324.9653,-126.0001 329.9653,-126 324.9653,-121.5001 334.9653,-126 334.9653,-126"/>
</g>
<!-- A8 -->
<g id="node9" class="node">
<title>A8</title>
<path fill="none" stroke="#000000" d="M754.8665,-144C754.8665,-144 577.0885,-144 577.0885,-144 571.0885,-144 565.0885,-138 565.0885,-132 565.0885,-132 565.0885,-120 565.0885,-120 565.0885,-114 571.0885,-108 577.0885,-108 577.0885,-108 754.8665,-108 754.8665,-108 760.8665,-108 766.8665,-114 766.8665,-120 766.8665,-120 766.8665,-132 766.8665,-132 766.8665,-138 760.8665,-144 754.8665,-144"/>
<text text-anchor="middle" x="665.9775" y="-123" font-family="Helvetica,sans-Serif" font-size="10.00" fill="#000000">Veritabanı:Üye bilgilerine erişim sağla</text>
</g>
<!-- A7&#45;&gt;A8 -->
<g id="edge6" class="edge">
<title>A7&#45;&gt;A8</title>
<path fill="none" stroke="#000000" d="M496.6032,-126C515.09,-126 535.0546,-126 554.5683,-126"/>
<polygon fill="#000000" stroke="#000000" points="564.7214,-126 554.7214,-130.5001 559.7214,-126 554.7214,-126.0001 554.7214,-126.0001 554.7214,-126.0001 559.7214,-126 554.7213,-121.5001 564.7214,-126 564.7214,-126"/>
</g>
<!-- A9 -->
<g id="node10" class="node">
<title>A9</title>
<path fill="none" stroke="#000000" d="M992.4293,-144C992.4293,-144 814.7527,-144 814.7527,-144 808.7527,-144 802.7527,-138 802.7527,-132 802.7527,-132 802.7527,-120 802.7527,-120 802.7527,-114 808.7527,-108 814.7527,-108 814.7527,-108 992.4293,-108 992.4293,-108 998.4293,-108 1004.4293,-114 1004.4293,-120 1004.4293,-120 1004.4293,-132 1004.4293,-132 1004.4293,-138 998.4293,-144 992.4293,-144"/>
<text text-anchor="middle" x="903.591" y="-123" font-family="Helvetica,sans-Serif" font-size="10.00" fill="#000000">Veritabanı:Üyelik süresini güncelle</text>
</g>
<!-- A8&#45;&gt;A9 -->
<g id="edge7" class="edge">
<title>A8&#45;&gt;A9</title>
<path fill="none" stroke="#000000" d="M767.0916,-126C775.443,-126 783.9138,-126 792.3338,-126"/>
<polygon fill="#000000" stroke="#000000" points="802.5678,-126 792.5678,-130.5001 797.5678,-126 792.5678,-126.0001 792.5678,-126.0001 792.5678,-126.0001 797.5678,-126 792.5678,-121.5001 802.5678,-126 802.5678,-126"/>
</g>
<!-- A10 -->
<g id="node11" class="node">
<title>A10</title>
<path fill="none" stroke="#000000" d="M192.706,-198C192.706,-198 73.634,-198 73.634,-198 67.634,-198 61.634,-192 61.634,-186 61.634,-186 61.634,-174 61.634,-174 61.634,-168 67.634,-162 73.634,-162 73.634,-162 192.706,-162 192.706,-162 198.706,-162 204.706,-168 204.706,-174 204.706,-174 204.706,-186 204.706,-186 204.706,-192 198.706,-198 192.706,-198"/>
<text text-anchor="middle" x="133.17" y="-177" font-family="Helvetica,sans-Serif" font-size="10.00" fill="#000000">Salon:Yoğunluğu hesapla</text>
</g>
<!-- A11 -->
<g id="node12" class="node">
<title>A11</title>
<path fill="none" stroke="#000000" d="M480.2115,-198C480.2115,-198 351.1615,-198 351.1615,-198 345.1615,-198 339.1615,-192 339.1615,-186 339.1615,-186 339.1615,-174 339.1615,-174 339.1615,-168 345.1615,-162 351.1615,-162 351.1615,-162 480.2115,-162 480.2115,-162 486.2115,-162 492.2115,-168 492.2115,-174 492.2115,-174 492.2115,-186 492.2115,-186 492.2115,-192 486.2115,-198 480.2115,-198"/>
<text text-anchor="middle" x="415.6865" y="-177" font-family="Helvetica,sans-Serif" font-size="10.00" fill="#000000">Salon:Yoğunluğu güncelle</text>
</g>
<!-- A10&#45;&gt;A11 -->
<g id="edge8" class="edge">
<title>A10&#45;&gt;A11</title>
<path fill="none" stroke="#000000" d="M204.8261,-180C242.5722,-180 289.1579,-180 328.9335,-180"/>
<polygon fill="#000000" stroke="#000000" points="339.1556,-180 329.1557,-184.5001 334.1556,-180 329.1556,-180.0001 329.1556,-180.0001 329.1556,-180.0001 334.1556,-180 329.1556,-175.5001 339.1556,-180 339.1556,-180"/>
</g>
<!-- A12 -->
<g id="node13" class="node">
<title>A12</title>
<path fill="none" stroke="#000000" d="M254.5102,-252C254.5102,-252 11.8298,-252 11.8298,-252 5.8298,-252 -.1702,-246 -.1702,-240 -.1702,-240 -.1702,-228 -.1702,-228 -.1702,-222 5.8298,-216 11.8298,-216 11.8298,-216 254.5102,-216 254.5102,-216 260.5102,-216 266.5102,-222 266.5102,-228 266.5102,-228 266.5102,-240 266.5102,-240 266.5102,-246 260.5102,-252 254.5102,-252"/>
<text text-anchor="middle" x="133.17" y="-231" font-family="Helvetica,sans-Serif" font-size="10.00" fill="#000000">Uygulama:Giriş yapılıp yapılmadığını doğrula</text>
</g>
<!-- A13 -->
<g id="node14" class="node">
<title>A13</title>
<path fill="none" stroke="#000000" d="M516.8797,-252C516.8797,-252 314.4933,-252 314.4933,-252 308.4933,-252 302.4933,-246 302.4933,-240 302.4933,-240 302.4933,-228 302.4933,-228 302.4933,-222 308.4933,-216 314.4933,-216 314.4933,-216 516.8797,-216 516.8797,-216 522.8797,-216 528.8797,-222 528.8797,-228 528.8797,-228 528.8797,-240 528.8797,-240 528.8797,-246 522.8797,-252 516.8797,-252"/>
<text text-anchor="middle" x="415.6865" y="-231" font-family="Helvetica,sans-Serif" font-size="10.00" fill="#000000">Uygulama:Görüntülenecek verileri belirle</text>
</g>
<!-- A12&#45;&gt;A13 -->
<g id="edge9" class="edge">
<title>A12&#45;&gt;A13</title>
<path fill="none" stroke="#000000" d="M266.5689,-234C275.1946,-234 283.8596,-234 292.4345,-234"/>
<polygon fill="#000000" stroke="#000000" points="302.4517,-234 292.4518,-238.5001 297.4517,-234 292.4517,-234.0001 292.4517,-234.0001 292.4517,-234.0001 297.4517,-234 292.4517,-229.5001 302.4517,-234 302.4517,-234"/>
</g>
</g>
</svg>
